<?xml version="1.0" encoding="iso-8859-1"?>
<!-- Uploaded to: SVG Repo, www.svgrepo.com, Generator: SVG Repo Mixer Tools -->
<svg height="800px" width="800px" version="1.1" id="Layer_1" xmlns="http://www.w3.org/2000/svg" xmlns:xlink="http://www.w3.org/1999/xlink" 
	 viewBox="0 0 511.997 511.997" xml:space="preserve">
<g transform="translate(0 -1)">
	<path style="fill:#BDC3C7;" d="M365.713,439.857h-18.286V246.083c-25.975,12.553-59.557,20.059-91.429,20.059
		s-65.454-7.506-91.429-20.059v193.774h-18.286V213.983l14.034,8.896c23.945,15.177,61.504,24.978,95.68,24.978
		s71.735-9.801,95.68-24.978l14.034-8.896V439.857z"/>
	<g>
		<polygon style="fill:#95A5A5;" points="127.999,512.997 182.856,512.997 182.856,439.854 127.999,439.854 		"/>
		<polygon style="fill:#95A5A5;" points="329.142,512.997 383.999,512.997 383.999,439.854 329.142,439.854 		"/>
	</g>
	<g>
		<polygon style="fill:#BDC3C7;" points="160.079,411.16 150.772,395.407 351.915,276.55 361.222,292.303 		"/>
		<polygon style="fill:#BDC3C7;" points="351.918,411.16 150.775,292.303 160.083,276.55 361.226,395.407 		"/>
	</g>
	<polygon style="fill:#E57E25;" points="127.999,211.283 383.999,211.283 383.999,64.997 127.999,64.997 	"/>
	<g>
		<path style="fill:#F29C1F;" d="M255.999,1c-60.645,0-128,28.626-128,64h256C383.999,29.626,316.643,1,255.999,1"/>
		<path style="fill:#F29C1F;" d="M255.999,275.286c60.645,0,128-28.626,128-64h-256
			C127.999,246.659,195.354,275.286,255.999,275.286"/>
	</g>
</g>
</svg>